<svg fill="none" height="1200" viewBox="0 0 1200 1200" width="1200" xmlns="http://www.w3.org/2000/svg" xmlns:xlink="http://www.w3.org/1999/xlink"><linearGradient id="a" gradientUnits="userSpaceOnUse" x1="0" x2="1200" y1="0" y2="1200"><stop offset="0" stop-color="#0f172a"/><stop offset="1" stop-color="#1e293b"/></linearGradient><radialGradient id="b" cx=".5" cy=".5" r=".5"><stop offset="0" stop-color="#3b82f6"/><stop offset="1" stop-color="#1d4ed8" stop-opacity="0"/></radialGradient><radialGradient id="c" cx=".5" cy=".5" r=".5"><stop offset="0" stop-color="#8b5cf6"/><stop offset="1" stop-color="#6d28d9" stop-opacity="0"/></radialGradient><radialGradient id="d" cx=".5" cy=".5" r=".5"><stop offset="0" stop-color="#06b6d4"/><stop offset="1" stop-color="#0e7490" stop-opacity="0"/></radialGradient><linearGradient id="e" gradientUnits="objectBoundingBox" x1="0" x2="1" y1="0" y2="0"><stop offset="0" stop-color="#3b82f6" stop-opacity="0"/><stop offset=".5" stop-color="#3b82f6"/><stop offset="1" stop-color="#3b82f6" stop-opacity="0"/></linearGradient><linearGradient id="f" gradientUnits="objectBoundingBox" x1="0" x2="1" y1="0" y2="0"><stop offset="0" stop-color="#8b5cf6" stop-opacity="0"/><stop offset=".5" stop-color="#8b5cf6"/><stop offset="1" stop-color="#8b5cf6" stop-opacity="0"/></linearGradient><radialGradient id="g" cx=".5" cy=".5" r=".5"><stop offset="0" stop-color="#38bdf8"/><stop offset="1" stop-color="#0ea5e9" stop-opacity="0"/></radialGradient><rect fill="url(#a)" height="1200" rx="20" width="1200"/><circle cx="600" cy="400" fill="url(#b)" opacity=".6" r="250"/><circle cx="400" cy="800" fill="url(#c)" opacity=".4" r="180"/><circle cx="900" cy="700" fill="url(#d)" opacity=".5" r="150"/><path d="m200 300c200-200 600-100 800 0" fill="none" opacity=".7" stroke="url(#e)" stroke-width="3"/><path d="m100 600c200-100 600 100 1000 0" fill="none" opacity=".7" stroke="url(#f)" stroke-width="3"/><path d="m200 900c200-100 600 100 800 0" fill="none" opacity=".7" stroke="url(#e)" stroke-width="3"/><g transform="translate(400 450)"><circle cx="200" cy="120" fill="url(#g)" opacity=".4" r="90"/><g fill="#fff"><circle cx="120" cy="120" opacity=".8" r="5"/><circle cx="280" cy="120" opacity=".8" r="5"/><circle cx="150" cy="70" opacity=".6" r="3"/><circle cx="250" cy="70" opacity=".6" r="3"/></g></g><g fill="#fff"><circle cx="300" cy="300" opacity=".8" r="8"/><circle cx="900" cy="400" opacity=".7" r="6"/><circle cx="800" cy="200" opacity=".6" r="10"/><circle cx="400" cy="900" opacity=".7" r="7"/><circle cx="700" cy="800" opacity=".8" r="9"/><circle cx="200" cy="700" opacity=".6" r="5"/><circle cx="1000" cy="600" opacity=".7" r="8"/></g></svg>